# xmcd
# Track frame offsets:
# 150
# 15824
# 26746
# 44823
# 59268
# 74946
# 85747
# 101370
# 115606
#
# Disc length: 1662 seconds
# Revision: 0
# Processed by: cddbd v1.4PL0 Copyright (c) Steve Scherf et al.
# Submitted via: VisiTrax 2.9.5.181 - For more info visit www.synapsa.com
#
DISCID=71067c09
DTITLE=Harald Thune - Frisk and fredløs
DYEAR=1900
DGENRE=
TTITLE0=Cowboyf..!
TTITLE1=Yrkesvalg (er en privat sak)
TTITLE2=Tia
TTITLE3=En pendel slår
TTITLE4=Anneli
TTITLE5=Balladen om Jesus Elvis Harry Bang Bang
TTITLE6=Veiens befriende sang
TTITLE7=Jorda er skrinn der jeg sår
TTITLE8=Sang til Tone Elise
EXTD=
EXTT0=
EXTT1=
EXTT2=
EXTT3=
EXTT4=
EXTT5=
EXTT6=
EXTT7=
EXTT8=
PLAYORDER=
